<svg xmlns="http://www.w3.org/2000/svg" id="Capa_1" data-name="Capa 1" viewBox="0 0 231 225"><defs><style>      .cls-1 {        fill: #00a5a3;      }      .cls-1, .cls-2 {        stroke-width: 0px;      }      .cls-3 {        stroke: #fff;        stroke-linecap: round;        stroke-linejoin: round;        stroke-width: 2px;      }      .cls-3, .cls-2 {        fill: #fff;      }    </style></defs><g><path class="cls-2" d="M169.1,26.86c4.07-.01,7.95-2.98,10.54-5.89,3.29-3.7,4.47-8.54,5.51-13.26l-2.95-.4c1.02,10.4,9.89,19.01,20.34,19.64l-.4-2.95c-10.47,4.15-17.79,14.56-17.96,25.86l2.95-.4c-2.72-10.27-9.05-19.3-17.71-25.43-1.58-1.12-3.08,1.48-1.51,2.59,8.02,5.68,13.83,14.15,16.33,23.64.44,1.65,2.92,1.29,2.95-.4.15-9.86,6.55-19.32,15.76-22.97,1.54-.61,1.37-2.84-.4-2.95-8.71-.52-16.48-7.94-17.34-16.64-.15-1.56-2.55-2.18-2.95-.4-.89,4.03-1.77,8.45-4.51,11.68-2.04,2.39-5.3,5.25-8.64,5.27-1.93,0-1.93,3.01,0,3h0Z"></path><path class="cls-3" d="M196.06,56.74c2.67.07,5.68-2.89,7.1-5.16s2.02-4.93,2.6-7.54c.59,6.67,6.58,12.43,13.26,12.77-6.89,2.67-11.81,9.79-11.87,17.19-1.8-6.92-6.12-13.16-11.98-17.27"></path></g><g><circle class="cls-2" cx="100.16" cy="118.54" r="97.03"></circle><g><path class="cls-1" d="M58.89,131.07s0-.03,0-.05c.13-2.13-.1-4.28-.67-6.34-.45-2.05-1.23-3.99-2.58-5.64-.13-.19-.25-.39-.38-.57.41-.11.78-.49.69-1.03-.4-2.36-2.77-4.17-5.15-3.89-.51.06-.84.44-.84.86-.16-.21-.32-.42-.49-.62-.8-.95-1.72-1.86-2.9-2.31-1.13-.43-2.55-.17-3.48.57-.06,0-.12.02-.18.03-.61-.3-1.22-.58-1.86-.81-1.09-.4-2.22-.69-3.37-.87-.61-.09-1.23-.17-1.84-.2-.52-.03-1.24-.15-1.72.05-.13.05-.24.12-.33.2-2.69.29-5.23,1.32-7.36,2.92-3.23.96-5.79,3.54-6.85,6.69-1.04.93-1.53,2.51-1.76,3.91-.45,2.77-.27,5.6.54,8.29.04.14.12.25.21.35.16.63.35,1.25.58,1.86.04.1.09.18.15.25,0,.01,0,.02,0,.03.8,4.67,2.35,9.18,4.57,13.36.57,1.41,1.23,2.79,1.98,4.13-.05.19-.05.39.07.61.98,1.89,2.04,3.74,3.16,5.55l1.24,2.18c.55,1.04,1.13,2.08,1.75,3.08.15.24.36.36.58.4.97,1.49,1.95,2.98,2.92,4.47-.35.28-.51.81-.13,1.26,1.51,1.82,3.02,3.63,4.53,5.45.2.24.47.29.73.24,2.19,2.9,4.64,5.58,7.66,7.69.21.15.42.17.61.13.03.21.15.41.39.56.75.47,1.5.95,2.25,1.42.48.76,1.06,1.51,1.97,1.54.14,0,.27-.01.4-.04.03.02.06.04.08.05.35.22.72.12.98-.12.29.4.55.81.85,1.2.23.3.53.35.8.25.09.44.17.88.27,1.31.22.94,1.69.75,1.68-.21-.03-5.33-.06-10.66-.09-15.98,0-.49-.34-.75-.71-.81.04-.09.08-.2.09-.32.21-2.73.33-5.47.36-8.21,0-.25,0-.5.01-.75,0-1.15,0-2.3-.02-3.46,0-.28-.13-.49-.3-.63,0-.12,0-.24,0-.35.16-3.44.28-6.89.31-10.34,0-.24-.09-.43-.23-.57-.02-.57-.03-1.15-.05-1.72.84-4.96,1.08-9.99.9-15.02ZM49.2,116.2c.15.2.29.4.44.61-.06.32-.06.68.03,1.03-.66-.93-1.44-1.79-2.31-2.56-.04-.11-.1-.22-.21-.32-.28-.26-.58-.49-.88-.72,1.05.45,2.04,1.15,2.94,1.97ZM56.54,135.79c-.3.1-.54.35-.53.77,0,.35.01.7.02,1.05-.03-.08-.08-.15-.12-.22.02-1.01,0-2.02-.09-3.01,0-.04-.01-.08-.02-.12.12-.1.21-.23.25-.42.03-.16.05-.32.08-.48.11.68.22,1.35.34,2.03.01.08.04.14.07.2,0,.07,0,.13,0,.2ZM43.1,147.79c.32,2.14.69,4.26,1.16,6.37-.51-1.05-.98-2.11-1.47-3.16.13-1.07.23-2.14.31-3.21ZM45.08,118.19l-.67-.54c0-.12-.04-.24-.11-.35-.06-.1-.14-.18-.21-.27.07.06.14.12.22.17,1,.8,1.94,1.69,2.81,2.63-.68-.55-1.35-1.09-2.03-1.64ZM42.81,118.54c.13.1.26.21.38.31.14.11.28.23.43.34-.18.02-.35.05-.52.1-.14-.25-.27-.51-.42-.76.04,0,.09,0,.13,0ZM53.95,125.36c.11.16.26.25.42.31.23,1.11.36,2.23.39,3.36-.39-1.33-.78-2.66-1.18-3.98-.03-.1-.06-.19-.09-.29.15.2.31.4.45.6ZM33.53,112.91s-.06,0-.09.01c.12-.08.24-.16.35-.24.01.02.03.03.05.05-.11.06-.21.12-.31.18ZM29.94,115.76c-.06.06-.12.11-.17.17-.09.01-.17.03-.25.04.14-.07.28-.15.42-.21,0,0,0,0,0,0ZM19.98,123.72s-.01.07-.01.1c-.04-.04-.09-.07-.13-.1.05,0,.1,0,.15,0ZM27.79,114.47c.06.04.13.07.21.09-.13.05-.26.09-.39.14h0c.05-.06.08-.12.12-.18.02-.01.04-.03.06-.05ZM53.92,116.85c-.25-.27-.53-.52-.83-.74-.09-.13-.18-.27-.27-.4.45.28.83.66,1.1,1.13ZM40.08,171.74c.4.46.8.92,1.22,1.37.49.61,1.02,1.2,1.59,1.75.77,1.17,1.61,2.29,2.5,3.38.19.26.39.51.58.77-2.24-2.16-4.14-4.66-5.89-7.26Z"></path><path class="cls-1" d="M128.59,173.02c1.02-4.15.9-8.44.7-12.68-.06-1.24-.12-2.47-.18-3.71,0-3.4-.16-6.79-.5-10.17-.04-.36-.25-.6-.52-.72.36-.06.68-.31.69-.79.1-4.15-.06-8.3-.43-12.44-.02-.44-.03-.88-.05-1.32,0-.14-.05-.26-.11-.36-.12-1.17-.26-2.34-.42-3.51-.15-4.12-1.86-8.14-4.79-11.05-1.08-1.07-2.87-2.59-4.52-1.88-2.33-2.75-6.15-4.52-9.75-3.85-.89.17-1.47.96-1.15,1.8-.12,0-.24,0-.37,0-.07-.29-.27-.55-.59-.6-4.35-.77-8.99,1.35-11.15,5.2-.28-.09-.58-.04-.79.22-.79.97-1.52,1.98-2.17,3.03-.84,1.18-1.55,2.46-2.07,3.83-.04.1-.05.2-.05.29-.41,1-.77,2.04-1.06,3.09-.14.1-.27.24-.33.47-.95,3.72-1.58,7.5-1.9,11.31-.16,1.52-.23,3.04-.22,4.57-.07,3.66.16,7.32.67,10.95.01.64.02,1.28.03,1.91-.21.13-.36.35-.34.68.17,3.04.34,6.08.51,9.12,0,.37.01.75.02,1.12-.12,3.12-.28,6.23-.48,9.35-.16.14-.27.34-.28.61-.07,1.97-.13,3.93-.2,5.9,0,.25.08.43.2.56,0,.66,0,1.33,0,1.99,0,.18.07.33.15.46.06,2.45.18,4.89.39,7.33-.36-.03-.72.14-.82.6-.51,2.29.75,4.47,2.64,5.72,1.69,1.11,3.73,1.32,5.73,1.29.48.04.95.03,1.42,0,2.76.17,5.53.06,8.28-.39,1.32-.21,2.63-.5,3.95-.77.31-.03.61-.07.92-.12.22.11.46.18.71.22,0,.5.41,1.02,1.04.86.87-.22,1.75-.45,2.62-.67.17.28.48.45.89.31,1.51-.52,3-1.09,4.47-1.69,1.72-.44,3.43-.88,5.15-1.33.37-.1.55-.36.59-.65.75.15,1.54,0,2.25-.46,1.24-.78,1.82-2.1,1.83-3.54,0-.58-.07-1.16-.19-1.74,0-.06,0-.11,0-.17.19-.13.33-.34.35-.65.46-5.67.88-11.42-.43-17.01-.05-.23-.18-.38-.34-.49ZM126.07,128.27v.14c0-.06-.01-.11-.02-.17,0,0,.01.02.02.03ZM97.16,197.89c.01-.31-.12-.66-.4-.79-.2-.09-.41-.18-.61-.27.79.16,1.58.33,2.37.49.39.08.7-.08.89-.33.21.08.42.15.64.2.08.02.16.03.24.05-1.03.18-2.05.4-3.07.66-.02,0-.04-.01-.07-.02ZM126.07,173.67c0,.08.01.15.02.23.02.13.06.23.12.32-.18.05-.33.16-.44.32.06-.66.13-1.32.18-1.97.04.36.07.71.11,1.07,0,.01,0,.02,0,.03,0,0,0,0,0,0ZM111.59,118.62s0,0,0,0c.01-.01.03-.03.06-.05,0,0,0,0,0,0-.02.02-.03.03-.04.04ZM108.4,126.97c.15.28.31.56.44.84.07.14.13.29.19.43.01.03.07.17.11.26.03.09.07.2.09.22.07.18.14.37.21.56,1.05,2.93,1.91,5.99,2.45,9.05.04.23.07.45.11.68-.41-1.08-.81-2.16-1.19-3.24-.58-1.64-1.13-3.29-1.67-4.95-.22-1.29-.46-2.58-.72-3.86ZM109.25,165.06c0,.11,0,.22,0,.33-.08-.06-.16-.12-.25-.17.08-.05.16-.1.24-.16ZM102.67,127.72c-.01-.11-.02-.22-.03-.33.02.06.04.12.06.18,0,.05-.02.1-.02.15ZM108.05,191.02c.06.04.12.07.18.11-.09,0-.18,0-.27,0,.03-.04.06-.08.09-.12ZM113.09,189.51c.03-.21.04-.43.07-.65.25.27.54.48.87.62-.11.06-.22.12-.33.18-.23.12-.47.23-.7.34.04-.16.07-.32.09-.5ZM125.6,176.44c-.04,1.85-.02,3.7.05,5.55-.26.01-.51.12-.67.33.23-1.96.43-3.91.62-5.87ZM124.8,183.89c.03-.21.05-.43.07-.64.06.26.1.51.15.77-.07-.05-.15-.09-.22-.13ZM89.67,168.33c.02.15.04.3.08.45-.08.15-.15.31-.2.47,0-.69.02-1.37.03-2.06.04.38.06.76.1,1.14ZM120.3,121.23c-.45-.35-1.01-.54-1.58-.55-.28-.72-.57-1.43-.87-2.13.65.95,1.4,1.82,2.3,2.47.05.07.1.14.15.21ZM89.94,134.44c-.1,1.09-.19,2.18-.27,3.27-.15.12-.25.3-.28.53.08-1.28.19-2.57.33-3.85.07.03.15.04.23.05ZM89.25,140.6s0-.1,0-.15c0,.05,0,.1,0,.15ZM124.59,121.4c.08.17.14.34.22.52-.12-.06-.25-.09-.38-.1-.25-.41-.51-.8-.79-1.19-1.05-1.82-2.44-3.39-4.06-4.66.32.05.64.17.91.35,1.78,1.2,3.18,3.18,4.12,5.08ZM114.27,113.15c-1.22-.4-2.48-.66-3.76-.77-.15-.06-.29-.12-.44-.18-.01,0-.02,0-.04,0-.03-.02-.07-.04-.11-.06,1.51-.03,3.01.33,4.35,1.02ZM89.69,198.14c-.22-1.79-.38-3.58-.52-5.38.15.83.34,1.65.57,2.46,0,.07.02.14.03.21.01.09.05.17.09.24.01.04.02.09.03.13.17.55.77.72,1.21.54.05.35.1.71.15,1.06.07.52.14,1.03.21,1.55,0,.07.01.14.02.22-.25-.09-.49-.18-.72-.3-.37-.19-.74-.43-1.07-.72Z"></path><path class="cls-1" d="M175.42,152.43c1.57-2.92,2.85-5.98,3.63-9.23,1.47-3.85,2.83-7.82,3.26-11.9.13-.37.26-.73.39-1.1.14-.4,0-.71-.26-.88.03-.93,0-1.87-.09-2.81,0-.01,0-.03-.01-.04.03-.08.06-.16.06-.27.11-3.45,0-6.91-.31-10.35-.08-.99-.18-1.98-.29-2.97-.54-5.04-1.45-10.04-2.82-14.92-.06-.22-.14-.44-.2-.66-.65-4.73-2.01-9.32-4.05-13.62-.7-1.95-1.39-3.99-2.32-5.84-.08-.16-.17-.31-.26-.47-3.03-7.32-7.6-14-13.36-19.44-2.07-1.95-4.29-3.74-6.64-5.36-.06-.16-.15-.32-.34-.44-7.29-4.53-14.82-9.15-22.98-11.97-5.96-2.47-12.3-3.99-18.75-4.47-.54-.04-.85.42-.84.88-1.83-.31-3.66-.55-5.51-.7-.13-.1-.29-.17-.51-.16-.33.02-.66.05-.99.07-5.76-.3-11.56.2-17.18,1.56-.92.22-1.82.47-2.73.74-1.74.15-3.45.45-5.13.91-7.26,1.55-14.27,4.28-20.63,8.11-1.85,1.12-3.63,2.35-5.37,3.64-4.11,2.62-8,5.59-11.6,8.9-1.92,1.77-3.76,3.63-5.51,5.57-.41.46-.21,1.04.17,1.32-.24.31-.47.63-.71.95-.22.29-.45.58-.66.88-.69.95-1.37,1.9-2.02,2.87-1.15,1.71-2.24,3.45-3.26,5.23-.25.43-.51.87-.75,1.31-.3.36-.58.73-.82,1.14-.16.27-.14.53-.04.75-.05.15-.1.29-.14.44-1,1.48-2.01,2.95-3.01,4.43-.57.84.63,1.66,1.33,1.05.42-.37.85-.72,1.28-1.07.1,0,.21,0,.31,0,.14.41.52.75,1,.57,1.21-.45,2.41-.91,3.62-1.36.52-.14,1.03-.29,1.54-.44.06-.02.12-.03.18-.05.11.06.23.09.38.07,2.79-.34,5.61-.68,8.45-.92,1.98-.12,3.96-.17,5.95-.16-.06.46.19.98.8.98.92,0,1.83.06,2.74.14,2.45,1.15,5.08,1.78,7.72,2.38,1.65.53,3.3,1.07,4.95,1.6.02,0,.04,0,.06,0,2.2,1.04,4.48,1.91,6.82,2.58.03.03.06.06.1.08.99.56,2.02,1.1,3.07,1.59.06.19.16.36.34.46,2.26,1.25,4.99,1.28,7.27.05.14-.08.24-.18.31-.3,2.58-.26,4.97-1.39,6.77-3.25.08-.04.15-.07.23-.11.19-.09.29-.23.36-.39,1.68-.5,3.27-1.26,4.88-2.07.78-.39,1.58-.75,2.37-1.11,3.9-.55,7.8-1.1,11.7-1.65,2.38-.34,4.76-.68,7.14-1.01.53-.07.94-.13,1.34-.18.44.73,1.21,1.2,2.15,1.27,1.35.1,2.71.22,4.05.39.32.04.65.08.97.13.08.01.47.07.5.07.67.1,1.34.22,2.01.34.76.14,1.52.32,2.28.48.25.12.49.26.74.39,3.38,2.02,6.76,4.04,10.13,6.06.03.02.06.04.09.06,1.04.7,2.08,1.42,3.09,2.16.52.38,1.04.77,1.55,1.16.12.09.24.19.36.28,0,0,.01,0,.02.02.26.21.53.43.79.64.71.59,1.39,1.2,2.08,1.82l4.92,8.65c1.5,2.89,2.9,5.82,4.2,8.81.08.18.19.28.32.35.3,1.3.59,2.61.86,3.92.2,1.18.41,2.36.61,3.54.05.9.11,1.79.14,2.69-.15.14-.25.33-.26.59-.28,4.72.05,9.42.57,14.1-.02,1.18.02,2.35.14,3.52-.2.13-.36.35-.39.66-.18,1.94-.32,3.89-.43,5.83-.26.11-.46.35-.45.74.08,2.36.16,4.71.24,7.07,0,2.81.04,5.63.19,8.44,0,.15.05.28.11.39,0,.06,0,.12,0,.18.04,1.07.19,2.21.11,3.27-.03.45-.25.89-.34,1.33-.09.43-.15.87-.17,1.31-.05.97.09,1.94.37,2.86.23.76,1.45.88,1.65.02.03-.12.05-.24.08-.36.32.16.75.15.99-.13,2.52-2.97,4.85-6.1,6.97-9.36.81-1.12,1.56-2.29,2.27-3.48,2.52-2.97,4.48-6.28,6.04-9.78ZM77.4,91.04s0,0,0,0h0ZM160.32,160.42c.09-2.5.17-5,.26-7.5.05.7.13,1.4.2,2.1-.08.7-.15,1.4-.24,2.1-.04.31.08.52.26.66-.01.04-.03.06-.04.1-.15.85-.29,1.69-.44,2.54ZM76.73,44.32c-.24.07-.49.14-.73.21-.16-.32-.39-.62-.68-.86.25-.08.5-.15.75-.22,0,0,0,.02,0,.02-.05.4.29.75.67.84ZM79.28,87.87c-.06-.04-.1-.08-.17-.11-.08-.03-.17-.06-.25-.09,0-.16-.03-.32-.11-.47.5-.02.99-.04,1.49-.07.1.13.2.25.32.37-.43.11-.86.23-1.28.37ZM153.7,64.81c-.63-.64-1.29-1.25-2-1.82.13-.15.26-.32.36-.5l2.07,1.92c-.16.12-.3.26-.44.4ZM121.05,60.11c-.88.1-1.76.19-2.63.3.5-.15,1.01-.3,1.51-.45.3,0,.6.02.89.03.08.04.15.08.23.12ZM38.47,77.86c.63.08,1.27.17,1.9.26-.04,0-.09,0-.12.02-.63-.06-1.26-.12-1.9-.17.04-.03.08-.07.12-.1ZM130.54,65.94s.1-.01.14-.02c.13.08.25.17.38.25-1,.06-2,.11-3,.19.83-.14,1.65-.28,2.48-.42ZM139.5,65.89c-.47-.35-.94-.7-1.41-1.05.88-.12,1.76-.24,2.64-.35.05,0,.1-.03.15-.04.05.49.14.97.3,1.42-.56,0-1.12.01-1.68.02ZM164.82,98.31c-.06,1-.1,2-.11,3.01-.29-1.1-.59-2.19-.9-3.28.32.16.66.25,1.01.27ZM178.44,126.56c-.2.73-.39,1.47-.59,2.2.05-1.45.07-2.91.07-4.36l.43,1.96c.02.08.06.14.09.2ZM36.11,77.51s.02,0,.04,0c-.05.04-.1.08-.16.12.02-.02.03-.05.04-.07.02-.01.05-.02.07-.04ZM175.1,137.43c.15-.01.29-.03.43-.06-.31,1.15-.62,2.3-.93,3.45.08-.58.15-1.17.21-1.76.11-.54.19-1.09.29-1.63ZM163.99,164.44c.08.02.16.03.24.04-.3.49-.59.99-.9,1.47.22-.5.44-1.01.66-1.51ZM176.02,144.7c-.02.1-.04.21-.06.31-.04.2,0,.37.06.52-.08-.02-.16-.03-.24-.03.08-.27.16-.53.24-.8ZM32.03,79.85c.09,0,.18.01.28.01-.44.23-.89.44-1.35.65.07-.05.14-.09.21-.14.28-.18.58-.35.86-.52ZM159.86,136.7c.02-.26.03-.52.05-.78,0-.16.02-.32.03-.48.04.42.08.84.11,1.26-.02.29-.04.58-.07.87-.03,0-.05.01-.07.02-.02-.29-.03-.59-.05-.88ZM162.09,157.53c.07-.11.13-.24.15-.39.02-.14.03-.28.05-.42.16-.13.27-.34.3-.63.05-.7.1-1.4.16-2.1.04-.01.09-.01.13-.03-.17,2.02-.37,4.04-.58,6.05-.05-.04-.1-.08-.16-.11.09-.52.18-1.04.26-1.56.06-.35-.09-.63-.31-.82ZM62.28,47.87c-.04-.06-.09-.12-.14-.17,1.54-.72,3.11-1.38,4.71-1.99-1.54.68-3.06,1.4-4.56,2.15ZM29.61,78.93c.07.1.14.2.23.28-.32.2-.64.4-.95.61.17-.3.35-.6.53-.9.06,0,.13.02.19,0ZM155.26,90.15c-.12.06-.23.12-.34.19-.15-.31-.29-.61-.44-.92.26.24.52.48.77.73ZM178.08,103.46l-.13-.99s.05-.02.08-.03c.29,1.13.56,2.26.8,3.4-.24-.8-.49-1.59-.75-2.38ZM78.88,49.25c-.91.2-1.82.4-2.73.61.51-.16,1.01-.34,1.52-.49.4-.12.81-.22,1.22-.33,0,.07-.01.13,0,.2ZM55.13,80.58c.29-.06.49-.26.58-.53,1.08.23,2.16.43,3.25.61.88.4,1.74.82,2.59,1.27-.03.05-.06.1-.08.15-1.35-.4-2.72-.72-4.1-.97-.75-.19-1.49-.36-2.24-.53ZM136.57,81.78c.14-.01.29-.03.43-.04.1.14.2.27.33.4-.25-.12-.51-.24-.76-.36ZM79.26,43.64c-.05.01-.1.02-.15.04.05-.02.11-.03.16-.05,0,0,0,0,0,.01ZM57.17,82.82c2.27.57,4.53,1.2,6.76,1.91.04.01.08,0,.12.01.23.14.46.28.7.41-.27-.01-.48.12-.61.32-.86-.31-1.72-.61-2.6-.87,0,0-.01,0-.02,0-1.71-.8-3.48-1.46-5.29-1.95.31.05.63.12.94.17ZM171.51,80.45c-.1.17-.13.38-.05.62.44,1.29.88,2.58,1.31,3.88-.16-.38-.33-.75-.49-1.13-.73-2.13-1.46-4.25-2.18-6.38.16.14.31.32.45.52.34.82.67,1.65.96,2.49ZM168.61,75.54c-.09.03-.18.09-.26.14-.12-.21-.25-.43-.4-.65.27-.19.45-.51.32-.88-.07-.2-.14-.39-.21-.59.11-.12.17-.27.18-.44.4.75.77,1.52,1.14,2.29-.25,0-.51.03-.78.13ZM74.36,90.2c.15-.28.14-.62-.18-.89-.56-.48-1.15-.91-1.76-1.31.47.14.94.27,1.41.41,0,.35.19.69.6.83.47.16.95.3,1.42.41-.06.09-.1.19-.13.29-.45.05-.89.14-1.33.28-.01,0-.03-.01-.04-.02ZM151.55,102.24c.23.27.45.54.67.82.09.12.19.23.28.35.02.02.11.14.18.23.07.09.25.33.24.32.11.15.22.3.33.45.16.6.33,1.21.49,1.81l-.66-1.16c-.49-.95-1.01-1.89-1.53-2.83ZM159.13,165.97c.07.01.13.03.2.03-.06.3-.11.59-.17.89-.01-.3-.02-.61-.03-.91ZM147.19,51.31c-.05.06-.09.12-.13.19-.24-.17-.47-.35-.72-.51-1.9-1.29-3.87-2.45-5.9-3.52-.27-.18-.53-.35-.8-.52,1.21.65,2.4,1.32,3.58,2,1.33.77,2.65,1.56,3.97,2.36ZM109.14,38.26s-.03.02-.04.04c-.04-.01-.07-.04-.12-.05-.08-.01-.15-.02-.23-.03,0,0,0,0,0,0-.03,0-.06,0-.09,0-2.41-.34-4.81-.47-7.21-.44.78-.06,1.55-.12,2.33-.16.02,0,.04-.01.06-.01.58.05,1.15.07,1.73.14,1.2.13,2.39.31,3.57.52Z"></path></g></g></svg>